<svg width="1145" height="177" viewBox="0 0 1145 177" fill="none" xmlns="http://www.w3.org/2000/svg">
<path d="M6.84789 175.764C55.7267 122.991 91.5644 101.459 170 75.7641C415.5 24.793 562 57.7642 808 130.152V57.7642C601.5 -10.7187 387 -13.7357 164.582 24.793C60.8704 54.0255 6.84789 101.69 0 175.764H6.84789Z" fill="#F79727"/>
<path d="M170.092 176.264V75.5178C62.0004 106.764 41.2148 135.264 41.2148 176.264H170.092Z" fill="#F47321"/>
<path d="M5.8877 175.937H42.1957C63.4999 144.764 76.4999 111.264 166.5 76.2642C90.4999 80.2642 34.4999 114.264 5.8877 175.937Z" fill="#D10E40"/>
<path d="M808 57.7642C958.252 108.937 1035.89 112.39 1145 100.103V113.552C1032.29 130.74 963.04 136.995 877.793 135.568C855.856 135.2 832.926 134.318 808 132.978V57.7642Z" fill="#F79727"/>
<path d="M804.5 132.264C815 138.264 829.043 139.569 841 141.764C940.022 157.321 1050.18 151.837 1145 135.264V112.264C1045.1 134.442 842.842 139.885 825.5 132.239C825.5 132.239 811.553 132.264 804.5 132.264Z" fill="#D10E40"/>
<path d="M815 136.764L804.5 132.264C811.553 132.264 825.5 132.239 825.5 132.239C572.649 54.0099 450.2 43.7444 312.5 54.2642C497.37 68.3323 613.406 83.596 815 136.764Z" fill="#D10E40"/>
<path d="M807.5 134.264V175.764H1145V132.264C1115.13 142.814 920 165.764 807.5 134.264Z" fill="#F47321"/>
<path d="M810 135.264C810 135.264 356.5 4.26419 170 75.7642C-16.4997 147.264 170 175.764 170 175.764H810V135.264Z" fill="#F47321"/>
</svg>
