<svg width="56" height="56" viewBox="0 0 56 56" fill="none" xmlns="http://www.w3.org/2000/svg">
<g id="Icon">
<path id="Vector 8" d="M27.5 4C27.5 4 66.875 51 27.5 51C-11.875 51 27.5 4 27.5 4Z" fill="#FFD300" stroke="#FFD300" stroke-width="2" stroke-linecap="round"/>
<g id="Sports / football ball">
<path id="Vector" d="M37.4147 23.1283C36.145 21.3753 34.406 20.0165 32.398 19.2083C30.6277 18.4878 28.7075 18.2132 26.8062 18.4087C24.9049 18.6042 23.0807 19.2639 21.4941 20.3297C19.9075 21.3955 18.6071 22.8347 17.7071 24.521C16.8072 26.2072 16.3353 28.0887 16.333 30C16.333 30.2217 16.333 30.4433 16.333 30.6533C16.4348 32.4781 16.9665 34.2531 17.8847 35.8333C19.3841 38.4651 21.8484 40.4106 24.7563 41.2583C25.8133 41.5443 26.9049 41.6817 27.9997 41.6667C28.736 41.6701 29.4707 41.5997 30.193 41.4567C32.5761 40.9954 34.7559 39.8023 36.4289 38.0436C38.1019 36.2849 39.1846 34.0481 39.5263 31.645C39.614 31.1009 39.6608 30.5511 39.6663 30C39.6765 27.5266 38.8866 25.1161 37.4147 23.1283ZM35.0813 24.0267L33.833 27.3633L31.943 27.8767L29.1663 25.905V23.7467L32.0713 21.635C33.2502 22.2034 34.2927 23.0192 35.128 24.0267H35.0813ZM30.333 29.615L29.423 32.3333H26.5647L25.6663 29.615L27.9997 27.9467L30.333 29.615ZM27.9997 20.6667C28.4333 20.6715 28.866 20.7066 29.2947 20.7717L27.9997 21.705L26.7047 20.7717C27.1334 20.7066 27.5661 20.6715 27.9997 20.6667ZM19.693 25.765L20.1597 27.305L18.8413 28.2267C19.007 27.3698 19.2937 26.541 19.693 25.765ZM21.2913 36.4633L22.9013 36.5217L23.333 38.0733C22.5833 37.6306 21.8966 37.0891 21.2913 36.4633ZM23.333 34.2L19.658 34.0717C19.1943 33.161 18.8867 32.1791 18.748 31.1667L21.653 29.1367L23.333 29.86L24.3713 33.08L23.333 34.2ZM24.3363 27.7483L22.5163 26.9317L21.4547 23.4317C22.1703 22.7008 23.0021 22.0937 23.9163 21.635L26.833 23.7467V25.905L24.3363 27.7483ZM29.1663 39.2517C28.1428 39.3731 27.1063 39.3258 26.098 39.1117L25.1297 35.705L26.098 34.6667H29.6797L30.4613 35.8333L29.1663 39.2517ZM31.978 38.435L32.5147 37L34.1013 37.0817C33.4486 37.6314 32.7221 38.0869 31.943 38.435H31.978ZM36.0147 34.795L32.3863 34.6667L31.558 33.3833L32.5963 30.1633L34.358 29.685L37.1113 32.0183C36.8894 32.9998 36.5071 33.938 35.9797 34.795H36.0147ZM36.073 27.9933L36.633 26.5C36.9615 27.293 37.1699 28.1305 37.2513 28.985L36.073 27.9933Z" fill="black"/>
</g>
</g>
</svg>
