<svg width="56" height="56" viewBox="0 0 56 56" fill="none" xmlns="http://www.w3.org/2000/svg">
<g id="Icon">
<path id="Vector 8" d="M27.5 4C27.5 4 66.875 51 27.5 51C-11.875 51 27.5 4 27.5 4Z" fill="#FFD300" stroke="#FFD300" stroke-width="2" stroke-linecap="round"/>
<g id="Education / mortarboard">
<path id="Vector" d="M39.0714 27.8883L37.9047 27.2467L27.4047 21.4133H27.2764C27.2048 21.3831 27.1306 21.3597 27.0547 21.3433H26.833H26.623C26.5433 21.3597 26.4652 21.3831 26.3897 21.4133H26.2614L15.7614 27.2467C15.5818 27.3484 15.4325 27.496 15.3286 27.6743C15.2247 27.8526 15.1699 28.0553 15.1699 28.2617C15.1699 28.468 15.2247 28.6707 15.3286 28.849C15.4325 29.0274 15.5818 29.1749 15.7614 29.2767L18.6664 30.8867V36.4167C18.6664 37.3449 19.0351 38.2352 19.6915 38.8915C20.3479 39.5479 21.2381 39.9167 22.1664 39.9167H31.4997C32.428 39.9167 33.3182 39.5479 33.9746 38.8915C34.6309 38.2352 34.9997 37.3449 34.9997 36.4167V30.8867L37.333 29.58V32.9167C37.333 33.2261 37.4559 33.5228 37.6747 33.7416C37.8935 33.9604 38.1903 34.0833 38.4997 34.0833C38.8091 34.0833 39.1059 33.9604 39.3247 33.7416C39.5434 33.5228 39.6664 33.2261 39.6664 32.9167V28.9033C39.666 28.6966 39.6107 28.4937 39.5062 28.3153C39.4016 28.137 39.2516 27.9896 39.0714 27.8883ZM32.6664 36.4167C32.6664 36.7261 32.5434 37.0228 32.3247 37.2416C32.1059 37.4604 31.8091 37.5833 31.4997 37.5833H22.1664C21.8569 37.5833 21.5602 37.4604 21.3414 37.2416C21.1226 37.0228 20.9997 36.7261 20.9997 36.4167V32.1817L26.2614 35.0983L26.4364 35.1683H26.5414C26.6382 35.1805 26.7362 35.1805 26.833 35.1683C26.9299 35.1805 27.0279 35.1805 27.1247 35.1683H27.2297C27.2916 35.1553 27.3508 35.1316 27.4047 35.0983L32.6664 32.1817V36.4167ZM26.833 32.7533L18.7364 28.25L26.833 23.7467L34.9297 28.25L26.833 32.7533Z" fill="black"/>
</g>
</g>
</svg>
