<svg width="56" height="56" viewBox="0 0 56 56" fill="none" xmlns="http://www.w3.org/2000/svg">
<g id="Icon">
<path id="Vector 8" d="M27.5 4C27.5 4 66.875 51 27.5 51C-11.875 51 27.5 4 27.5 4Z" fill="#FFD300" stroke="#FFD300" stroke-width="2" stroke-linecap="round"/>
<g id="User Interface / House">
<path id="Vector" d="M37.3334 25.3333L30.3334 19.1967C29.6918 18.6227 28.861 18.3054 28.0001 18.3054C27.1392 18.3054 26.3085 18.6227 25.6668 19.1967L18.6668 25.3333C18.2962 25.6648 18.0005 26.0713 17.7993 26.526C17.5982 26.9806 17.4962 27.4729 17.5001 27.97V38.1667C17.5001 39.0949 17.8689 39.9852 18.5252 40.6415C19.1816 41.2979 20.0719 41.6667 21.0001 41.6667H35.0001C35.9284 41.6667 36.8186 41.2979 37.475 40.6415C38.1314 39.9852 38.5001 39.0949 38.5001 38.1667V27.9583C38.5024 27.4632 38.3996 26.9731 38.1985 26.5206C37.9974 26.0681 37.7025 25.6634 37.3334 25.3333ZM30.3334 39.3333H25.6668V33.5C25.6668 33.1906 25.7897 32.8938 26.0085 32.675C26.2273 32.4562 26.524 32.3333 26.8334 32.3333H29.1668C29.4762 32.3333 29.7729 32.4562 29.9917 32.675C30.2105 32.8938 30.3334 33.1906 30.3334 33.5V39.3333ZM36.1668 38.1667C36.1668 38.4761 36.0439 38.7728 35.8251 38.9916C35.6063 39.2104 35.3095 39.3333 35.0001 39.3333H32.6668V33.5C32.6668 32.5717 32.298 31.6815 31.6417 31.0251C30.9853 30.3687 30.095 30 29.1668 30H26.8334C25.9052 30 25.0149 30.3687 24.3586 31.0251C23.7022 31.6815 23.3334 32.5717 23.3334 33.5V39.3333H21.0001C20.6907 39.3333 20.3939 39.2104 20.1752 38.9916C19.9564 38.7728 19.8334 38.4761 19.8334 38.1667V27.9583C19.8337 27.7927 19.8691 27.629 19.9375 27.4781C20.0059 27.3272 20.1057 27.1927 20.2301 27.0833L27.2301 20.9583C27.443 20.7713 27.7167 20.6681 28.0001 20.6681C28.2835 20.6681 28.5572 20.7713 28.7701 20.9583L35.7701 27.0833C35.8946 27.1927 35.9943 27.3272 36.0627 27.4781C36.1311 27.629 36.1666 27.7927 36.1668 27.9583V38.1667Z" fill="black"/>
</g>
</g>
</svg>
