<svg width="56" height="56" viewBox="0 0 56 56" fill="none" xmlns="http://www.w3.org/2000/svg">
<g id="Icon">
<path id="Vector 8" d="M27.5 4C27.5 4 66.875 51 27.5 51C-11.875 51 27.5 4 27.5 4Z" fill="#FFD300" stroke="#FFD300" stroke-width="2" stroke-linecap="round"/>
<g id="Medical / health">
<path id="Vector" d="M35 21H21C20.2044 21 19.4413 21.3161 18.8787 21.8787C18.3161 22.4413 18 23.2044 18 24V38C18 38.7956 18.3161 39.5587 18.8787 40.1213C19.4413 40.6839 20.2044 41 21 41H35C35.7956 41 36.5587 40.6839 37.1213 40.1213C37.6839 39.5587 38 38.7956 38 38V24C38 23.2044 37.6839 22.4413 37.1213 21.8787C36.5587 21.3161 35.7956 21 35 21ZM36 38C36 38.2652 35.8946 38.5196 35.7071 38.7071C35.5196 38.8946 35.2652 39 35 39H21C20.7348 39 20.4804 38.8946 20.2929 38.7071C20.1054 38.5196 20 38.2652 20 38V24C20 23.7348 20.1054 23.4804 20.2929 23.2929C20.4804 23.1054 20.7348 23 21 23H35C35.2652 23 35.5196 23.1054 35.7071 23.2929C35.8946 23.4804 36 23.7348 36 24V38ZM33 28H31V26C31 25.7348 30.8946 25.4804 30.7071 25.2929C30.5196 25.1054 30.2652 25 30 25H26C25.7348 25 25.4804 25.1054 25.2929 25.2929C25.1054 25.4804 25 25.7348 25 26V28H23C22.7348 28 22.4804 28.1054 22.2929 28.2929C22.1054 28.4804 22 28.7348 22 29V33C22 33.2652 22.1054 33.5196 22.2929 33.7071C22.4804 33.8946 22.7348 34 23 34H25V36C25 36.2652 25.1054 36.5196 25.2929 36.7071C25.4804 36.8946 25.7348 37 26 37H30C30.2652 37 30.5196 36.8946 30.7071 36.7071C30.8946 36.5196 31 36.2652 31 36V34H33C33.2652 34 33.5196 33.8946 33.7071 33.7071C33.8946 33.5196 34 33.2652 34 33V29C34 28.7348 33.8946 28.4804 33.7071 28.2929C33.5196 28.1054 33.2652 28 33 28ZM32 32H30C29.7348 32 29.4804 32.1054 29.2929 32.2929C29.1054 32.4804 29 32.7348 29 33V35H27V33C27 32.7348 26.8946 32.4804 26.7071 32.2929C26.5196 32.1054 26.2652 32 26 32H24V30H26C26.2652 30 26.5196 29.8946 26.7071 29.7071C26.8946 29.5196 27 29.2652 27 29V27H29V29C29 29.2652 29.1054 29.5196 29.2929 29.7071C29.4804 29.8946 29.7348 30 30 30H32V32Z" fill="black"/>
</g>
</g>
</svg>
