<svg width="56" height="56" viewBox="0 0 56 56" fill="none" xmlns="http://www.w3.org/2000/svg">
<g id="Icon">
<path id="Vector 8" d="M27.5 4C27.5 4 66.875 51 27.5 51C-11.875 51 27.5 4 27.5 4Z" fill="#FFD300" stroke="#FFD300" stroke-width="2" stroke-linecap="round"/>
<g id="Security / shield check">
<path id="Vector" d="M35.902 22.2583C35.7665 22.1487 35.6081 22.0708 35.4385 22.0304C35.2689 21.9901 35.0924 21.9882 34.922 22.025C33.6753 22.2863 32.3884 22.2896 31.1404 22.0348C29.8924 21.78 28.7098 21.2724 27.6653 20.5433C27.47 20.4079 27.238 20.3353 27.0003 20.3353C26.7626 20.3353 26.5306 20.4079 26.3353 20.5433C25.2909 21.2724 24.1083 21.78 22.8603 22.0348C21.6123 22.2896 20.3253 22.2863 19.0787 22.025C18.9083 21.9882 18.7318 21.9901 18.5622 22.0304C18.3926 22.0708 18.2342 22.1487 18.0987 22.2583C17.9633 22.3681 17.8543 22.5069 17.7796 22.6644C17.7049 22.8218 17.6664 22.994 17.667 23.1683V31.86C17.666 33.5327 18.0646 35.1815 18.8296 36.669C19.5947 38.1564 20.704 39.4396 22.0653 40.4117L26.3237 43.445C26.5213 43.5857 26.7578 43.6613 27.0003 43.6613C27.2429 43.6613 27.4794 43.5857 27.677 43.445L31.9353 40.4117C33.2966 39.4396 34.406 38.1564 35.171 36.669C35.9361 35.1815 36.3347 33.5327 36.3337 31.86V23.1683C36.3343 22.994 36.2958 22.8218 36.2211 22.6644C36.1464 22.5069 36.0374 22.3681 35.902 22.2583ZM34.0003 31.86C34.0012 33.1605 33.6915 34.4425 33.0969 35.5992C32.5023 36.7559 31.6401 37.7538 30.582 38.51L27.0003 41.065L23.4187 38.51C22.3605 37.7538 21.4983 36.7559 20.9037 35.5992C20.3092 34.4425 19.9994 33.1605 20.0003 31.86V24.51C22.4462 24.7193 24.8957 24.1519 27.0003 22.8883C29.105 24.1519 31.5545 24.7193 34.0003 24.51V31.86ZM28.797 29.1883L25.6587 32.3383L24.6203 31.2883C24.4006 31.0686 24.1027 30.9452 23.792 30.9452C23.4813 30.9452 23.1834 31.0686 22.9637 31.2883C22.744 31.508 22.6206 31.806 22.6206 32.1167C22.6206 32.4274 22.744 32.7253 22.9637 32.945L24.8303 34.8117C24.9388 34.921 25.0678 35.0078 25.21 35.067C25.3522 35.1263 25.5047 35.1568 25.6587 35.1568C25.8127 35.1568 25.9652 35.1263 26.1073 35.067C26.2495 35.0078 26.3785 34.921 26.487 34.8117L30.5003 30.8333C30.72 30.6136 30.8434 30.3157 30.8434 30.005C30.8434 29.6943 30.72 29.3964 30.5003 29.1767C30.2806 28.957 29.9827 28.8336 29.672 28.8336C29.3613 28.8336 29.0634 28.957 28.8437 29.1767L28.797 29.1883Z" fill="black"/>
</g>
</g>
</svg>
