<svg width="56" height="56" viewBox="0 0 56 56" fill="none" xmlns="http://www.w3.org/2000/svg">
<g id="Icon">
<path id="Vector 8" d="M27.5 4C27.5 4 66.875 51 27.5 51C-11.875 51 27.5 4 27.5 4Z" fill="#FFD300" stroke="#FFD300" stroke-width="2" stroke-linecap="round"/>
<g id="Medical / health">
<path id="Vector" d="M30.3333 30.8333H29.1667V29.6667C29.1667 29.3572 29.0437 29.0605 28.825 28.8417C28.6062 28.6229 28.3094 28.5 28 28.5C27.6906 28.5 27.3938 28.6229 27.175 28.8417C26.9562 29.0605 26.8333 29.3572 26.8333 29.6667V30.8333H25.6667C25.3572 30.8333 25.0605 30.9562 24.8417 31.175C24.6229 31.3938 24.5 31.6906 24.5 32C24.5 32.3094 24.6229 32.6061 24.8417 32.8249C25.0605 33.0437 25.3572 33.1667 25.6667 33.1667H26.8333V34.3333C26.8333 34.6427 26.9562 34.9395 27.175 35.1583C27.3938 35.3771 27.6906 35.5 28 35.5C28.3094 35.5 28.6062 35.3771 28.825 35.1583C29.0437 34.9395 29.1667 34.6427 29.1667 34.3333V33.1667H30.3333C30.6427 33.1667 30.9395 33.0437 31.1583 32.8249C31.3771 32.6061 31.5 32.3094 31.5 32C31.5 31.6906 31.3771 31.3938 31.1583 31.175C30.9395 30.9562 30.6427 30.8333 30.3333 30.8333ZM37.52 23.8333C36.276 22.6021 34.6329 21.8561 32.8872 21.7299C31.1415 21.6037 29.4082 22.1056 28 23.145C26.5156 22.0409 24.668 21.5402 22.8292 21.7439C20.9905 21.9475 19.2972 22.8402 18.0903 24.2423C16.8834 25.6444 16.2526 27.4518 16.3249 29.3003C16.3972 31.1489 17.1673 32.9014 18.48 34.205L25.48 41.2633C26.1362 41.9188 27.0258 42.2869 27.9533 42.2869C28.8808 42.2869 29.7704 41.9188 30.4267 41.2633L37.4267 34.205C38.1161 33.5314 38.6656 32.7282 39.0436 31.8416C39.4216 30.955 39.6207 30.0024 39.6294 29.0386C39.638 28.0747 39.4561 27.1187 39.0941 26.2254C38.7321 25.3321 38.1972 24.5192 37.52 23.8333ZM35.875 32.5367L28.875 39.5366C28.7665 39.646 28.6375 39.7328 28.4953 39.792C28.3532 39.8513 28.2007 39.8817 28.0467 39.8817C27.8926 39.8817 27.7402 39.8513 27.598 39.792C27.4558 39.7328 27.3268 39.646 27.2183 39.5366L20.2183 32.5367C19.3034 31.6014 18.791 30.345 18.791 29.0367C18.791 27.7283 19.3034 26.4719 20.2183 25.5367C21.1507 24.6161 22.4081 24.1 23.7183 24.1C25.0285 24.1 26.286 24.6161 27.2183 25.5367C27.3268 25.646 27.4558 25.7328 27.598 25.792C27.7402 25.8513 27.8926 25.8818 28.0467 25.8818C28.2007 25.8818 28.3532 25.8513 28.4953 25.792C28.6375 25.7328 28.7665 25.646 28.875 25.5367C29.8073 24.6161 31.0648 24.1 32.375 24.1C33.6852 24.1 34.9426 24.6161 35.875 25.5367C36.797 26.473 37.3137 27.7343 37.3137 29.0483C37.3137 30.3624 36.797 31.6237 35.875 32.56V32.5367Z" fill="black"/>
</g>
</g>
</svg>
