<svg width="56" height="56" viewBox="0 0 56 56" fill="none" xmlns="http://www.w3.org/2000/svg">
<g id="Icon">
<path id="Vector 8" d="M27.5 4C27.5 4 66.875 51 27.5 51C-11.875 51 27.5 4 27.5 4Z" fill="#FFD300" stroke="#FFD300" stroke-width="2" stroke-linecap="round"/>
<g id="Users / users">
<path id="Vector" d="M27.3503 30.2567C27.9728 29.7178 28.4721 29.0514 28.8143 28.3025C29.1566 27.5537 29.3337 26.74 29.3337 25.9167C29.3337 24.3696 28.7191 22.8858 27.6251 21.7919C26.5312 20.6979 25.0474 20.0833 23.5003 20.0833C21.9532 20.0833 20.4695 20.6979 19.3755 21.7919C18.2816 22.8858 17.667 24.3696 17.667 25.9167C17.667 26.74 17.8441 27.5537 18.1863 28.3025C18.5285 29.0514 19.0278 29.7178 19.6503 30.2567C18.0172 30.9962 16.6315 32.1905 15.6591 33.6966C14.6867 35.2028 14.1687 36.9572 14.167 38.75C14.167 39.0594 14.2899 39.3562 14.5087 39.575C14.7275 39.7938 15.0242 39.9167 15.3337 39.9167C15.6431 39.9167 15.9398 39.7938 16.1586 39.575C16.3774 39.3562 16.5003 39.0594 16.5003 38.75C16.5003 36.8935 17.2378 35.113 18.5506 33.8003C19.8633 32.4875 21.6438 31.75 23.5003 31.75C25.3568 31.75 27.1373 32.4875 28.4501 33.8003C29.7628 35.113 30.5003 36.8935 30.5003 38.75C30.5003 39.0594 30.6232 39.3562 30.842 39.575C31.0608 39.7938 31.3576 39.9167 31.667 39.9167C31.9764 39.9167 32.2732 39.7938 32.492 39.575C32.7107 39.3562 32.8337 39.0594 32.8337 38.75C32.8319 36.9572 32.3139 35.2028 31.3415 33.6966C30.3691 32.1905 28.9835 30.9962 27.3503 30.2567ZM23.5003 29.4167C22.8081 29.4167 22.1314 29.2114 21.5558 28.8268C20.9803 28.4422 20.5317 27.8956 20.2667 27.2561C20.0018 26.6165 19.9325 25.9128 20.0676 25.2339C20.2026 24.5549 20.536 23.9313 21.0255 23.4418C21.5149 22.9523 22.1386 22.619 22.8175 22.4839C23.4964 22.3489 24.2002 22.4182 24.8397 22.6831C25.4793 22.948 26.0259 23.3966 26.4105 23.9722C26.7951 24.5477 27.0003 25.2244 27.0003 25.9167C27.0003 26.8449 26.6316 27.7352 25.9752 28.3915C25.3188 29.0479 24.4286 29.4167 23.5003 29.4167ZM34.8637 29.79C35.6103 28.9492 36.098 27.9106 36.2681 26.7991C36.4382 25.6876 36.2834 24.5506 35.8224 23.525C35.3614 22.4994 34.6138 21.6289 33.6695 21.0183C32.7253 20.4077 31.6248 20.083 30.5003 20.0833C30.1909 20.0833 29.8942 20.2063 29.6754 20.425C29.4566 20.6438 29.3337 20.9406 29.3337 21.25C29.3337 21.5594 29.4566 21.8562 29.6754 22.075C29.8942 22.2938 30.1909 22.4167 30.5003 22.4167C31.4286 22.4167 32.3188 22.7854 32.9752 23.4418C33.6316 24.0982 34.0003 24.9884 34.0003 25.9167C33.9987 26.5294 33.8362 27.1311 33.5291 27.6613C33.222 28.1916 32.781 28.6319 32.2503 28.9383C32.0774 29.0381 31.9329 29.1806 31.8308 29.3522C31.7286 29.5238 31.6722 29.7187 31.667 29.9183C31.6621 30.1164 31.7077 30.3124 31.7996 30.488C31.8915 30.6635 32.0265 30.8128 32.192 30.9217L32.647 31.225L32.7987 31.3067C34.205 31.9737 35.3914 33.0287 36.2181 34.3474C37.0449 35.6661 37.4776 37.1936 37.4653 38.75C37.4653 39.0594 37.5882 39.3562 37.807 39.575C38.0258 39.7938 38.3226 39.9167 38.632 39.9167C38.9414 39.9167 39.2382 39.7938 39.457 39.575C39.6757 39.3562 39.7987 39.0594 39.7987 38.75C39.8082 36.9597 39.3598 35.1966 38.496 33.6284C37.6323 32.0602 36.3819 30.7389 34.8637 29.79Z" fill="black"/>
</g>
</g>
</svg>
